<?xml version="1.0" encoding="UTF-8" standalone="no"?>
<!DOCTYPE svg PUBLIC "-//W3C//DTD SVG 1.1//EN" "http://www.w3.org/Graphics/SVG/1.1/DTD/svg11.dtd">
<svg width="100%" height="100%" viewBox="0 0 917 301" version="1.1" xmlns="http://www.w3.org/2000/svg" xmlns:xlink="http://www.w3.org/1999/xlink" xml:space="preserve" xmlns:serif="http://www.serif.com/" style="fill-rule:evenodd;clip-rule:evenodd;stroke-linejoin:round;stroke-miterlimit:2;">
    <g transform="matrix(1,0,0,1,-3131.807161,-1150.831224)">
        <g transform="matrix(8.333333,0,0,8.333333,0,0)">
            <g transform="matrix(1,0,0,1,445.8179,149.6084)">
                <path d="M0,5.624L0,5.137C-0.004,2.516 -0.007,-0.105 -0.011,-2.725C-0.011,-3.286 0.048,-3.328 0.608,-3.309C1.112,-3.292 1.618,-3.302 2.122,-3.314C2.361,-3.32 2.46,-3.239 2.46,-2.987C2.454,0.876 2.454,4.739 2.46,8.602C2.46,8.868 2.362,8.942 2.107,8.938C1.296,8.926 0.485,8.921 -0.325,8.941C-0.618,8.949 -0.784,8.85 -0.924,8.596C-2.01,6.625 -3.107,4.661 -4.202,2.695C-4.632,1.924 -5.063,1.153 -5.495,0.382C-5.544,0.295 -5.603,0.214 -5.738,0.142L-5.738,0.498C-5.737,3.098 -5.737,5.698 -5.737,8.298C-5.737,8.936 -5.737,8.935 -6.389,8.934C-6.873,8.933 -7.358,8.919 -7.841,8.939C-8.132,8.952 -8.224,8.854 -8.223,8.562C-8.212,6.489 -8.216,4.415 -8.216,2.341C-8.216,0.594 -8.217,-1.153 -8.217,-2.901C-8.217,-3.289 -8.191,-3.315 -7.809,-3.315C-6.967,-3.316 -6.125,-3.307 -5.284,-3.319C-5.004,-3.324 -4.843,-3.215 -4.713,-2.971C-3.244,-0.204 -1.767,2.559 -0.29,5.321C-0.23,5.434 -0.153,5.539 -0.084,5.647C-0.056,5.639 -0.028,5.632 0,5.624" style="fill:rgb(0,0,146);fill-rule:nonzero;"/>
            </g>
        </g>
        <g transform="matrix(8.333333,0,0,8.333333,0,0)">
            <g transform="matrix(1,0,0,1,454.3646,151.4023)">
                <path d="M0,2.104L3.493,2.104C2.916,0.682 2.363,-0.682 1.81,-2.045C1.774,-2.048 1.738,-2.051 1.702,-2.054C1.142,-0.686 0.582,0.683 0,2.104M8.298,7.14C7.583,7.14 6.933,7.145 6.284,7.138C5.951,7.135 5.547,7.221 5.305,7.064C5.076,6.916 5.012,6.506 4.885,6.208C4.667,5.696 4.449,5.183 4.247,4.665C4.146,4.407 3.993,4.286 3.704,4.288C2.4,4.298 1.095,4.298 -0.21,4.288C-0.498,4.286 -0.652,4.406 -0.755,4.663C-1.036,5.365 -1.341,6.058 -1.617,6.761C-1.724,7.034 -1.875,7.154 -2.18,7.147C-2.937,7.127 -3.695,7.14 -4.453,7.139L-4.807,7.139C-4.668,6.793 -4.549,6.493 -4.426,6.195C-2.926,2.566 -1.424,-1.063 0.07,-4.695C0.192,-4.992 0.379,-5.117 0.693,-5.113C1.419,-5.103 2.145,-5.1 2.871,-5.111C3.16,-5.115 3.304,-4.981 3.409,-4.727C4.87,-1.173 6.337,2.379 7.803,5.931C7.962,6.316 8.118,6.702 8.298,7.14" style="fill:rgb(0,0,146);fill-rule:nonzero;"/>
            </g>
        </g>
        <g transform="matrix(8.333333,0,0,8.333333,0,0)">
            <g transform="matrix(1,0,0,1,468.7699,156.3939)">
                <path d="M0,-7.936L0,-7.944C-0.6,-7.944 -1.2,-7.938 -1.8,-7.946C-2.056,-7.95 -2.161,-7.843 -2.159,-7.589C-2.154,-6.599 -2.154,-5.61 -2.159,-4.62C-2.16,-4.4 -2.078,-4.283 -1.849,-4.284C-0.659,-4.29 0.531,-4.261 1.719,-4.308C2.645,-4.344 3.077,-4.677 3.249,-5.4C3.328,-5.732 3.362,-6.091 3.334,-6.431C3.251,-7.427 2.737,-7.901 1.737,-7.933C1.159,-7.951 0.579,-7.936 0,-7.936M-4.76,-3.977L-4.76,-9.598C-4.759,-10.04 -4.705,-10.101 -4.279,-10.098C-1.995,-10.083 0.289,-10.077 2.573,-10.044C4.469,-10.017 5.914,-8.629 6.141,-6.74C6.294,-5.455 6.007,-4.318 5.214,-3.313C4.617,-2.556 3.783,-2.199 2.847,-2.173C1.353,-2.13 -0.142,-2.158 -1.637,-2.156C-2.117,-2.155 -2.159,-2.113 -2.158,-1.631C-2.154,-0.505 -2.155,0.622 -2.14,1.748C-2.136,2.044 -2.227,2.165 -2.539,2.154C-3.128,2.134 -3.718,2.148 -4.307,2.148C-4.73,2.148 -4.758,2.122 -4.758,1.707C-4.758,0.76 -4.756,-0.188 -4.756,-1.135L-4.756,-3.977L-4.76,-3.977Z" style="fill:rgb(0,0,146);fill-rule:nonzero;"/>
            </g>
        </g>
        <g transform="matrix(8.333333,0,0,8.333333,0,0)">
            <g transform="matrix(1,0,0,1,432.088,153.4447)">
                <path d="M0,-2.055C1,-2.055 2,-2.056 3,-2.054C3.375,-2.054 3.42,-2 3.414,-1.638C3.407,-1.206 3.405,-0.775 3.408,-0.344C3.411,0.053 3.401,0.075 3.014,0.074C1.098,0.072 -0.818,0.077 -2.733,0.059C-3.659,0.05 -3.523,0.19 -3.378,0.885C-3.136,2.045 -2.379,2.754 -1.205,2.832C0.137,2.92 1.485,2.907 2.83,2.927C3.4,2.936 3.422,2.952 3.409,3.509C3.398,3.94 3.399,4.372 3.407,4.803C3.412,5.012 3.351,5.105 3.121,5.101C1.512,5.07 -0.101,5.103 -1.707,5.012C-3.671,4.9 -5.162,4.084 -5.938,1.83C-6.657,-0.262 -6.671,-2.347 -5.73,-4.369C-5.125,-5.667 -4.173,-6.664 -2.712,-6.974C-2.042,-7.117 -1.336,-7.119 -0.644,-7.134C0.566,-7.16 1.777,-7.149 2.987,-7.15C3.391,-7.15 3.412,-7.123 3.409,-6.717C3.406,-6.296 3.405,-5.875 3.409,-5.454C3.412,-4.992 3.414,-4.99 2.965,-4.989C1.88,-4.987 0.796,-5.001 -0.288,-4.979C-0.78,-4.968 -1.274,-4.914 -1.759,-4.831C-2.581,-4.69 -3.195,-4.022 -3.347,-3.154C-3.384,-2.937 -3.402,-2.716 -3.44,-2.499C-3.507,-2.127 -3.451,-2.052 -3.063,-2.052C-2.042,-2.05 -1.021,-2.051 0,-2.051L0,-2.055" style="fill:rgb(0,0,146);fill-rule:nonzero;"/>
            </g>
        </g>
        <g transform="matrix(8.333333,0,0,8.333333,0,0)">
            <g transform="matrix(1,0,0,1,482.3985,153.451)">
                <path d="M0,-2.062C1.01,-2.062 2.021,-2.051 3.031,-2.068C3.352,-2.074 3.43,-1.939 3.421,-1.654C3.406,-1.212 3.398,-0.769 3.42,-0.329C3.435,-0.026 3.335,0.076 3.029,0.074C1.103,0.06 -0.824,0.064 -2.75,0.056C-3.49,0.052 -3.546,0.114 -3.389,0.854C-3.15,1.984 -2.38,2.736 -1.19,2.825C0.056,2.918 1.309,2.913 2.56,2.922C3.592,2.929 3.407,2.907 3.405,3.758C3.404,4.105 3.398,4.453 3.41,4.8C3.417,5.01 3.358,5.099 3.128,5.095C1.518,5.063 -0.095,5.102 -1.7,5.006C-3.926,4.872 -5.394,3.849 -6.088,1.31C-6.426,0.071 -6.565,-1.187 -6.322,-2.463C-6.033,-3.981 -5.438,-5.328 -4.17,-6.303C-3.54,-6.787 -2.829,-7.072 -2.049,-7.094C-0.346,-7.143 1.36,-7.136 3.065,-7.16C3.319,-7.164 3.426,-7.078 3.418,-6.813C3.404,-6.319 3.403,-5.824 3.419,-5.33C3.428,-5.061 3.319,-4.988 3.067,-4.991C1.993,-5.002 0.919,-5.012 -0.154,-4.992C-0.656,-4.982 -1.161,-4.928 -1.657,-4.847C-2.565,-4.699 -3.179,-4.06 -3.332,-3.157C-3.368,-2.939 -3.401,-2.721 -3.439,-2.504C-3.498,-2.175 -3.408,-2.058 -3.063,-2.057C-2.042,-2.053 -1.021,-2.056 0,-2.056L0,-2.062Z" style="fill:rgb(0,0,146);fill-rule:nonzero;"/>
            </g>
        </g>
        <g transform="matrix(8.333333,0,0,8.333333,0,0)">
            <g transform="matrix(1,0,0,1,421.7078,158.5059)">
                <path d="M0,-12.203C0.8,-12.203 1.6,-12.196 2.4,-12.207C2.638,-12.21 2.741,-12.149 2.732,-11.888C2.714,-11.394 2.712,-10.898 2.735,-10.404C2.748,-10.119 2.644,-10.043 2.374,-10.046C1.195,-10.058 0.016,-10.068 -1.163,-10.047C-1.579,-10.039 -2.004,-9.98 -2.408,-9.877C-3.415,-9.623 -4.01,-8.945 -4.211,-7.939C-4.463,-6.675 -4.435,-5.41 -4.133,-4.157C-3.816,-2.843 -2.958,-2.166 -1.559,-2.142C-0.296,-2.121 0.967,-2.133 2.23,-2.132C2.716,-2.131 2.734,-2.11 2.729,-1.639C2.724,-1.186 2.72,-0.733 2.731,-0.281C2.737,-0.059 2.679,0.042 2.433,0.04C0.864,0.032 -0.705,0.057 -2.273,0.026C-3.213,0.008 -4.132,-0.166 -4.96,-0.663C-5.98,-1.276 -6.514,-2.233 -6.84,-3.331C-7.467,-5.442 -7.395,-7.524 -6.526,-9.557C-5.858,-11.119 -4.612,-11.915 -2.961,-12.084C-1.979,-12.185 -0.989,-12.204 -0.002,-12.26C-0.001,-12.241 -0.001,-12.222 0,-12.203" style="fill:rgb(0,0,146);fill-rule:nonzero;"/>
            </g>
        </g>
        <g transform="matrix(8.333333,0,0,8.333333,0,0)">
            <g transform="matrix(1,0,0,1,408.3019,173.3238)">
                <path d="M0,-34.341C-0.017,-34.452 -0.034,-34.557 -0.032,-34.654C-0.029,-34.85 -0.079,-34.995 -0.187,-35.095C-0.294,-35.196 -0.439,-35.236 -0.635,-35.221C-0.895,-35.199 -1.155,-35.179 -1.415,-35.159C-1.869,-35.125 -2.338,-35.089 -2.799,-35.045C-3.477,-34.982 -4.154,-34.913 -4.831,-34.845C-5.393,-34.789 -5.955,-34.732 -6.518,-34.678C-6.979,-34.634 -7.44,-34.593 -7.9,-34.552C-8.337,-34.514 -8.773,-34.476 -9.209,-34.434C-9.765,-34.381 -10.321,-34.325 -10.877,-34.269C-11.328,-34.224 -11.779,-34.179 -12.231,-34.135C-12.688,-34.09 -13.146,-34.048 -13.604,-34.005C-14.032,-33.965 -14.46,-33.926 -14.887,-33.884C-15.339,-33.841 -15.792,-33.796 -16.244,-33.751C-16.766,-33.699 -17.287,-33.647 -17.809,-33.597C-18.224,-33.557 -18.64,-33.52 -19.055,-33.482C-19.537,-33.439 -20.018,-33.396 -20.499,-33.349C-21.095,-33.291 -21.691,-33.231 -22.286,-33.17C-22.908,-33.107 -23.529,-33.044 -24.151,-32.984C-24.833,-32.918 -25.515,-32.855 -26.198,-32.792C-26.722,-32.744 -27.247,-32.695 -27.772,-32.646C-28.206,-32.604 -28.64,-32.561 -29.074,-32.518C-29.898,-32.436 -30.75,-32.352 -31.588,-32.282L-31.641,-32.278C-32.424,-32.213 -32.525,-32.092 -32.474,-31.278C-32.43,-30.569 -32.319,-30.467 -31.621,-30.501C-31.58,-30.503 -31.54,-30.504 -31.499,-30.504C-31.414,-30.506 -31.327,-30.507 -31.236,-30.519C-31.128,-30.532 -31.068,-30.536 -31.035,-30.535C-31.03,-30.501 -31.025,-30.44 -31.025,-30.327L-31.025,-29.59C-31.024,-28.539 -31.023,-27.453 -31.041,-26.386C-31.043,-26.232 -31.108,-26.038 -31.215,-25.868C-31.637,-25.194 -31.57,-24.204 -31.063,-23.614C-30.919,-23.446 -30.771,-23.362 -30.611,-23.36C-30.458,-23.36 -30.304,-23.435 -30.156,-23.598C-29.608,-24.198 -29.549,-25.193 -30.018,-25.911C-30.099,-26.036 -30.146,-26.153 -30.147,-26.233C-30.155,-27.056 -30.155,-27.878 -30.155,-28.7C-30.156,-29.304 -30.156,-29.908 -30.159,-30.512C-30.16,-30.632 -30.151,-30.641 -30.027,-30.649C-29.877,-30.66 -29.728,-30.672 -29.578,-30.684C-29.374,-30.701 -29.169,-30.718 -28.965,-30.73C-28.73,-30.744 -28.487,-30.758 -28.442,-30.738C-28.408,-30.683 -28.408,-30.422 -28.408,-30.169C-28.408,-29.786 -28.413,-29.402 -28.419,-29.018C-28.431,-28.086 -28.445,-27.123 -28.379,-26.176C-28.341,-25.622 -28.501,-25.208 -28.752,-24.756C-30.069,-22.387 -30.455,-19.8 -29.899,-17.067C-29.375,-14.491 -28.137,-12.122 -26.219,-10.025C-25.604,-9.353 -24.941,-8.709 -24.299,-8.087C-23.924,-7.723 -23.537,-7.347 -23.164,-6.97C-22.045,-5.839 -21.324,-4.763 -20.895,-3.586C-20.417,-2.274 -20.524,-1.097 -21.22,0.012C-21.283,0.113 -21.345,0.214 -21.409,0.319L-21.688,0.775L-21.336,0.834C-21.128,0.869 -20.948,0.895 -20.792,0.895C-20.533,0.895 -20.342,0.821 -20.204,0.593C-19.783,-0.103 -19.545,-0.791 -19.478,-1.508C-19.358,-2.78 -19.661,-4.015 -20.404,-5.282C-21.362,-6.92 -22.67,-8.204 -23.822,-9.244C-25.322,-10.597 -26.441,-11.954 -27.242,-13.393C-28.776,-16.149 -29.286,-18.579 -28.846,-21.041C-28.374,-23.683 -27.022,-25.889 -24.828,-27.597C-22.967,-29.047 -20.649,-29.76 -17.743,-29.775L-17.669,-29.775C-15.905,-29.775 -14.063,-29.434 -11.712,-28.673C-9.866,-28.075 -8.435,-27.093 -7.336,-25.669C-5.524,-23.32 -4.953,-21.122 -5.54,-18.752C-5.734,-17.968 -5.587,-17.241 -5.115,-16.649C-4.7,-16.129 -4.262,-15.615 -3.838,-15.118C-3.596,-14.834 -3.355,-14.551 -3.117,-14.266C-2.972,-14.092 -2.905,-13.972 -2.913,-13.899C-2.92,-13.826 -3.012,-13.718 -3.185,-13.58C-3.335,-13.461 -3.494,-13.344 -3.647,-13.232C-3.83,-13.098 -4.019,-12.959 -4.2,-12.811C-4.773,-12.339 -4.905,-11.797 -4.614,-11.105C-4.558,-10.971 -4.495,-10.845 -4.433,-10.725C-4.376,-10.613 -4.317,-10.497 -4.297,-10.437C-4.348,-10.399 -4.468,-10.336 -4.585,-10.274C-4.919,-10.097 -5.124,-9.832 -5.164,-9.527C-5.203,-9.224 -5.073,-8.919 -4.798,-8.666C-4.78,-8.649 -4.761,-8.634 -4.742,-8.621C-4.86,-8.564 -4.977,-8.507 -5.094,-8.449C-5.397,-8.297 -5.756,-8.076 -5.839,-7.709C-5.922,-7.345 -5.698,-6.995 -5.494,-6.732L-5.455,-6.682C-5.389,-6.597 -5.326,-6.517 -5.279,-6.435C-5.048,-6.033 -5.106,-5.7 -5.453,-5.444C-5.65,-5.298 -5.954,-5.109 -6.277,-5.037C-7.364,-4.795 -8.486,-4.91 -9.441,-5.054C-11.223,-5.323 -12.928,-6.012 -14.652,-7.159C-15.631,-7.81 -16.284,-8.681 -16.594,-9.749C-17.022,-11.225 -17.209,-12.872 -17.182,-14.931C-17.173,-15.632 -17.126,-16.33 -17.079,-16.985C-17.041,-17.512 -17.449,-17.566 -17.624,-17.588C-17.65,-17.592 -17.677,-17.595 -17.704,-17.6C-17.866,-17.627 -17.997,-17.601 -18.094,-17.522C-18.237,-17.406 -18.244,-17.231 -18.249,-17.115L-18.251,-17.075C-18.259,-16.943 -18.267,-16.811 -18.275,-16.679C-18.298,-16.304 -18.322,-15.917 -18.331,-15.532C-18.373,-13.732 -18.341,-11.799 -17.83,-9.866C-17.56,-8.848 -17.188,-7.694 -16.182,-6.895C-15.577,-6.415 -14.973,-5.989 -14.386,-5.627C-12.679,-4.575 -10.814,-3.966 -8.844,-3.815C-7.758,-3.733 -6.836,-3.761 -6.025,-3.903C-5.09,-4.066 -4.344,-4.644 -4.076,-5.411C-3.841,-6.085 -4.006,-6.795 -4.541,-7.418C-4.498,-7.438 -4.455,-7.458 -4.411,-7.477C-4.266,-7.542 -4.116,-7.61 -3.972,-7.695C-3.548,-7.948 -3.43,-8.245 -3.405,-8.45C-3.381,-8.653 -3.424,-8.966 -3.77,-9.306C-3.781,-9.317 -3.793,-9.327 -3.805,-9.336C-3.772,-9.358 -3.741,-9.377 -3.709,-9.396L-3.686,-9.41C-3.141,-9.74 -2.96,-10.309 -3.215,-10.895C-3.272,-11.026 -3.338,-11.151 -3.401,-11.271C-3.427,-11.319 -3.452,-11.367 -3.477,-11.416C-3.651,-11.756 -3.649,-11.767 -3.355,-11.989C-3.239,-12.077 -3.121,-12.163 -3.003,-12.248C-2.834,-12.37 -2.66,-12.496 -2.492,-12.629C-2.035,-12.993 -1.792,-13.368 -1.75,-13.778C-1.709,-14.184 -1.868,-14.596 -2.237,-15.036C-2.56,-15.421 -2.894,-15.806 -3.216,-16.178C-3.486,-16.489 -3.756,-16.801 -4.023,-17.115C-4.439,-17.606 -4.547,-18.143 -4.354,-18.757C-4.078,-19.63 -4.049,-20.58 -4.263,-21.746C-4.571,-23.43 -5.321,-25.03 -6.555,-26.636C-6.678,-26.796 -6.762,-27.005 -6.763,-27.156C-6.778,-28.398 -6.778,-29.662 -6.778,-30.884C-6.778,-31.49 -6.778,-32.097 -6.779,-32.703C-6.78,-32.852 -6.76,-32.892 -6.581,-32.907C-5.611,-32.991 -4.64,-33.077 -3.67,-33.163C-2.624,-33.255 -1.579,-33.348 -0.533,-33.437C-0.15,-33.47 0.062,-33.712 0.033,-34.082C0.027,-34.169 0.013,-34.255 0,-34.341" style="fill:rgb(0,0,146);fill-rule:nonzero;"/>
            </g>
        </g>
        <g transform="matrix(8.333333,0,0,8.333333,0,0)">
            <g transform="matrix(1,0,0,1,389.1982,147.6321)">
                <path d="M0,4.088C-0.229,4.238 -0.385,4.323 -0.521,4.433C-0.911,4.75 -1.058,5.305 -0.853,5.761C-0.807,5.863 -0.644,5.969 -0.536,5.969C-0.454,5.969 -0.335,5.813 -0.3,5.705C-0.257,5.573 -0.293,5.418 -0.281,5.274C-0.255,4.952 -0.021,4.82 0.248,4.752C0.506,4.687 0.585,4.897 0.682,5.076C1.146,5.933 1.917,6.287 2.664,5.992C2.736,5.964 2.835,5.941 2.867,5.885C2.945,5.744 2.993,5.585 3.053,5.434C2.896,5.395 2.72,5.291 2.584,5.329C1.935,5.51 1.683,5.428 1.324,4.867C1.09,4.503 0.875,4.12 0.598,3.791C0.074,3.17 -0.649,2.955 -1.434,2.96C-2.076,2.965 -2.628,2.786 -3.118,2.361C-3.662,1.889 -3.423,1.295 -2.968,1.073C-2.509,0.849 -2.204,0.515 -1.961,0.091C-1.884,-0.044 -1.798,-0.174 -1.715,-0.306C-1.06,-1.357 0.254,-1.063 0.783,-0.159C0.94,0.11 0.99,0.442 1.092,0.744C1.177,0.995 1.078,1.071 0.827,1.099C0.421,1.144 0.017,1.223 -0.382,1.316C-0.593,1.365 -0.851,1.44 -0.747,1.754C-0.651,2.045 -0.427,1.992 -0.194,1.927C0.197,1.818 0.578,1.661 1.009,1.796C1.382,1.913 1.629,2.108 1.747,2.489C1.903,2.995 1.926,2.986 2.458,2.998C2.721,3.004 3.003,3.01 3.24,3.107C3.629,3.265 3.794,3.617 3.765,4.03C3.728,4.531 3.817,4.913 4.368,5.111C4.524,5.167 4.658,5.482 4.676,5.689C4.77,6.746 3.75,7.607 2.728,7.307C2.257,7.169 1.862,7.193 1.391,7.329C-0.329,7.828 -1.896,6.73 -2.084,5.083C-2.108,4.875 -2.194,4.77 -2.411,4.736C-2.782,4.677 -3.154,4.607 -3.516,4.506C-4.911,4.115 -5.763,2.411 -5.426,1.105C-5.159,0.067 -4.549,-0.689 -3.506,-1.028C-3.058,-1.174 -2.753,-1.403 -2.542,-1.859C-2.008,-3.013 -0.427,-3.74 0.885,-2.956C1.413,-2.64 1.814,-2.522 2.443,-2.807C3.629,-3.347 5.082,-2.838 5.714,-1.605C5.844,-1.351 6.037,-1.249 6.319,-1.208C7.008,-1.109 7.709,-0.966 8.14,-0.354C8.364,-0.039 8.465,0.362 8.627,0.723C8.787,1.082 8.884,1.5 9.131,1.786C9.968,2.753 9.995,5.03 8.767,6.021C8.151,6.518 7.443,6.573 6.711,6.476C6.295,6.42 5.885,6.298 5.484,6.169C5.371,6.132 5.235,5.971 5.221,5.854C5.16,5.342 4.941,4.919 4.586,4.562C4.463,4.439 4.447,4.336 4.581,4.229C5.16,3.764 5.716,3.267 6.329,2.852C6.819,2.521 7.319,2.606 7.744,2.964C8.139,3.295 8.237,3.816 7.989,4.254C7.74,4.692 7.24,4.869 6.75,4.691C6.687,4.669 6.618,4.606 6.567,4.619C6.414,4.658 6.268,4.726 6.119,4.782C6.178,4.92 6.199,5.123 6.303,5.186C7.093,5.662 8.185,5.335 8.595,4.508C8.959,3.776 8.781,2.637 7.821,2.255C7.464,2.112 7.267,1.881 7.151,1.5C6.882,0.615 6.323,-0.009 5.373,-0.21C5.068,-0.275 4.865,-0.435 4.705,-0.738C4.086,-1.909 2.801,-2.219 1.529,-1.397C1.114,-1.129 0.822,-1.112 0.387,-1.365C-0.56,-1.917 -1.544,-1.66 -2.186,-0.741C-2.568,-0.195 -2.982,0.292 -3.511,0.695C-4.229,1.242 -4.277,2.152 -3.615,2.775C-3.054,3.302 -2.391,3.625 -1.598,3.598C-1.097,3.582 -0.62,3.64 -0.207,3.957C-0.156,3.997 -0.097,4.027 0,4.088" style="fill:rgb(0,0,146);fill-rule:nonzero;"/>
            </g>
        </g>
        <g transform="matrix(8.333333,0,0,8.333333,0,0)">
            <g transform="matrix(1,0,0,1,393.5482,146.221)">
                <path d="M0,4.87C-0.32,4.087 -0.9,3.726 -1.728,3.749C-1.807,3.751 -1.934,3.719 -1.96,3.665C-2.227,3.116 -2.775,2.693 -2.648,1.961C-2.608,1.731 -2.767,1.455 -2.868,1.213C-2.946,1.025 -2.969,0.886 -2.778,0.756C-2.185,0.353 -1.591,0 -0.836,0.35C-0.488,0.511 -0.24,0.759 -0.143,1.115C-0.026,1.547 0.254,1.72 0.667,1.781C1.49,1.904 2.089,2.461 2.223,3.221C2.238,3.306 2.19,3.469 2.137,3.487C1.327,3.747 0.704,4.28 0.099,4.843C0.085,4.856 0.058,4.855 0,4.87" style="fill:rgb(0,0,146);fill-rule:nonzero;"/>
            </g>
        </g>
        <g transform="matrix(8.333333,0,0,8.333333,0,0)">
            <g transform="matrix(1,0,0,1,386.3964,154.814)">
                <path d="M0,-1.896C0.191,-0.498 1.083,0.221 2.338,0.612C1.879,0.864 1.42,0.971 0.931,0.844C0.547,0.744 0.186,0.639 -0.093,0.283C-0.227,0.111 -0.589,0.072 -0.853,0.054C-1.833,-0.013 -2.639,-0.753 -2.677,-1.734C-2.691,-2.103 -2.552,-2.478 -2.482,-2.85C-2.44,-2.856 -2.398,-2.862 -2.356,-2.867C-2.221,-2.745 -2.08,-2.629 -1.952,-2.5C-1.421,-1.964 -0.862,-1.521 0,-1.896" style="fill:rgb(0,0,146);fill-rule:nonzero;"/>
            </g>
        </g>
        <g transform="matrix(8.333333,0,0,8.333333,0,0)">
            <g transform="matrix(1,0,0,1,448.5557,162.6372)">
                <path d="M0,1.654C0.008,1.544 0.022,1.434 0.022,1.325C0.024,0.702 0.031,0.08 0.02,-0.543C0.016,-0.767 0.099,-0.835 0.315,-0.836C0.535,-0.837 0.61,-0.761 0.608,-0.54C0.599,0.377 0.599,1.295 0.608,2.213C0.61,2.434 0.526,2.495 0.313,2.512C-0.057,2.542 -0.289,2.435 -0.462,2.078C-0.764,1.454 -1.123,0.857 -1.462,0.25C-1.509,0.164 -1.579,0.09 -1.715,0.03C-1.724,0.137 -1.74,0.245 -1.74,0.352C-1.742,0.964 -1.747,1.576 -1.737,2.187C-1.733,2.417 -1.815,2.508 -2.049,2.51C-2.288,2.512 -2.325,2.393 -2.323,2.194C-2.318,1.286 -2.314,0.379 -2.325,-0.528C-2.328,-0.768 -2.236,-0.815 -2.013,-0.84C-1.599,-0.888 -1.384,-0.713 -1.212,-0.353C-0.912,0.273 -0.568,0.879 -0.238,1.491C-0.201,1.56 -0.14,1.617 -0.091,1.68C-0.06,1.671 -0.03,1.663 0,1.654" style="fill:rgb(0,0,146);fill-rule:nonzero;"/>
            </g>
        </g>
        <g transform="matrix(8.333333,0,0,8.333333,0,0)">
            <g transform="matrix(1,0,0,1,429.1447,163.4808)">
                <path d="M0,-0.009L-0.01,-0.009C-0.01,0.317 -0.019,0.643 -0.003,0.968C0.001,1.044 0.088,1.175 0.141,1.178C0.456,1.191 0.774,1.195 1.086,1.16C1.394,1.126 1.644,0.93 1.676,0.627C1.723,0.197 1.741,-0.254 1.656,-0.672C1.615,-0.871 1.331,-1.083 1.111,-1.167C0.857,-1.263 0.552,-1.229 0.269,-1.242C0.078,-1.25 -0.015,-1.167 -0.004,-0.955C0.012,-0.641 0,-0.325 0,-0.009M-0.644,-0.025C-0.644,-0.479 -0.639,-0.933 -0.647,-1.386C-0.65,-1.578 -0.603,-1.682 -0.384,-1.677C0.154,-1.665 0.692,-1.682 1.23,-1.664C1.753,-1.646 2.218,-1.262 2.362,-0.758C2.517,-0.216 2.498,0.328 2.338,0.863C2.182,1.382 1.774,1.643 1.106,1.661C0.621,1.673 0.136,1.655 -0.349,1.663C-0.565,1.666 -0.653,1.589 -0.647,1.367C-0.636,0.903 -0.644,0.439 -0.644,-0.025" style="fill:rgb(0,0,146);fill-rule:nonzero;"/>
            </g>
        </g>
        <g transform="matrix(8.333333,0,0,8.333333,0,0)">
            <g transform="matrix(1,0,0,1,475.1376,163.6993)">
                <path d="M0,-0.365L0,-0.356C0.168,-0.356 0.337,-0.349 0.505,-0.358C0.798,-0.373 0.976,-0.565 0.994,-0.872C1.011,-1.179 0.857,-1.389 0.555,-1.418C0.231,-1.449 -0.097,-1.469 -0.421,-1.45C-0.531,-1.443 -0.704,-1.32 -0.728,-1.222C-0.894,-0.53 -0.757,-0.365 -0.063,-0.365L0,-0.365M1.089,-0.01C1.654,0.63 1.661,0.65 1.645,1.383C1.177,1.536 1.008,1.436 0.934,0.963C0.828,0.282 0.681,0.156 -0.017,0.149C-0.751,0.142 -0.751,0.142 -0.749,0.883C-0.748,0.967 -0.752,1.052 -0.747,1.136C-0.736,1.34 -0.805,1.449 -1.034,1.449C-1.264,1.448 -1.352,1.362 -1.35,1.129C-1.343,0.222 -1.341,-0.686 -1.353,-1.594C-1.356,-1.839 -1.256,-1.901 -1.033,-1.896C-0.452,-1.885 0.128,-1.894 0.709,-1.886C1.163,-1.88 1.528,-1.638 1.628,-1.292C1.765,-0.819 1.618,-0.405 1.22,-0.134C1.171,-0.1 1.132,-0.051 1.089,-0.01" style="fill:rgb(0,0,146);fill-rule:nonzero;"/>
            </g>
        </g>
        <g transform="matrix(8.333333,0,0,8.333333,0,0)">
            <g transform="matrix(1,0,0,1,459.7936,163.6233)">
                <path d="M0,-0.278C0.219,-0.29 0.443,-0.281 0.657,-0.321C0.923,-0.37 1.045,-0.578 1.029,-0.83C1.014,-1.081 0.916,-1.316 0.613,-1.337C0.268,-1.361 -0.077,-1.358 -0.422,-1.373C-0.64,-1.383 -0.714,-1.273 -0.729,-1.07C-0.785,-0.288 -0.788,-0.289 0,-0.278M1.058,0.103C1.566,0.348 1.695,0.764 1.658,1.246C1.651,1.339 1.541,1.501 1.484,1.499C1.338,1.494 1.149,1.452 1.063,1.352C0.972,1.247 0.968,1.059 0.947,0.904C0.888,0.465 0.658,0.246 0.217,0.229C-0.714,0.191 -0.715,0.191 -0.728,1.127C-0.731,1.333 -0.706,1.542 -1.026,1.52C-1.209,1.507 -1.298,1.445 -1.298,1.257C-1.296,0.318 -1.295,-0.621 -1.297,-1.56C-1.298,-1.75 -1.211,-1.82 -1.026,-1.818C-0.425,-1.811 0.176,-1.82 0.777,-1.808C1.208,-1.799 1.564,-1.574 1.636,-1.234C1.718,-0.846 1.736,-0.315 1.281,-0.086C1.211,-0.051 1.158,0.016 1.058,0.103" style="fill:rgb(0,0,146);fill-rule:nonzero;"/>
            </g>
        </g>
        <g transform="matrix(8.333333,0,0,8.333333,0,0)">
            <g transform="matrix(1,0,0,1,434.1914,163.4963)">
                <path d="M0,-0.104C0.029,-0.095 0.057,-0.085 0.086,-0.076C0.086,0.071 0.077,0.219 0.087,0.366C0.124,0.886 0.406,1.176 0.918,1.226C1.425,1.277 1.822,1.053 1.91,0.565C1.979,0.184 1.949,-0.222 1.915,-0.612C1.884,-0.957 1.668,-1.195 1.316,-1.258C0.942,-1.326 0.538,-1.341 0.31,-0.989C0.145,-0.734 0.099,-0.402 0,-0.104M1.045,1.666C-0.358,1.657 -0.738,0.792 -0.605,-0.395C-0.487,-1.448 0.164,-1.77 1.183,-1.71C1.54,-1.688 1.897,-1.643 2.179,-1.379C2.722,-0.87 2.709,-0.225 2.63,0.436C2.551,1.091 2.251,1.437 1.606,1.597C1.424,1.642 1.232,1.644 1.045,1.666" style="fill:rgb(0,0,146);fill-rule:nonzero;"/>
            </g>
        </g>
        <g transform="matrix(8.333333,0,0,8.333333,0,0)">
            <g transform="matrix(1,0,0,1,480.5051,164.781)">
                <path d="M0,-2.568C-0.553,-2.568 -0.864,-2.333 -0.935,-1.795C-0.977,-1.478 -0.97,-1.147 -0.931,-0.829C-0.87,-0.323 -0.536,-0.062 -0.019,-0.055C0.509,-0.049 0.862,-0.314 0.931,-0.825C0.973,-1.131 0.974,-1.452 0.937,-1.759C0.869,-2.319 0.559,-2.568 0,-2.568M1.651,-1.29C1.648,-0.71 1.55,-0.14 0.989,0.149C0.288,0.51 -0.466,0.496 -1.112,0.04C-1.37,-0.143 -1.546,-0.537 -1.62,-0.866C-1.738,-1.392 -1.698,-1.952 -1.373,-2.413C-1.227,-2.621 -0.98,-2.803 -0.74,-2.893C-0.247,-3.078 0.274,-3.049 0.778,-2.893C1.246,-2.748 1.618,-2.186 1.65,-1.606C1.656,-1.501 1.651,-1.395 1.651,-1.29" style="fill:rgb(0,0,146);fill-rule:nonzero;"/>
            </g>
        </g>
        <g transform="matrix(8.333333,0,0,8.333333,0,0)">
            <g transform="matrix(1,0,0,1,437.5225,161.7982)">
                <path d="M0,3.305C0.008,3.148 0.015,3.025 0.023,2.866C0.492,2.866 0.943,2.867 1.394,2.866C1.541,2.866 1.689,2.869 1.836,2.859C2.117,2.84 2.288,2.692 2.311,2.406C2.331,2.149 2.136,1.918 1.855,1.892C1.594,1.867 1.328,1.888 1.065,1.876C0.888,1.867 0.709,1.848 0.535,1.814C0.131,1.738 -0.089,1.479 -0.132,1.078C-0.172,0.7 -0.09,0.357 0.265,0.152C0.396,0.077 0.558,0.024 0.707,0.02C1.318,0.003 1.93,0.009 2.541,0.009C2.673,0.01 2.827,-0.021 2.832,0.197C2.837,0.407 2.714,0.433 2.547,0.436C2.02,0.448 1.494,0.47 0.968,0.484C0.698,0.491 0.565,0.622 0.554,0.893C0.542,1.165 0.646,1.361 0.926,1.385C1.271,1.414 1.62,1.402 1.968,1.409C2.885,1.426 3.09,1.996 2.926,2.755C2.856,3.081 2.601,3.282 2.294,3.295C1.541,3.326 0.786,3.305 0,3.305" style="fill:rgb(0,0,146);fill-rule:nonzero;"/>
            </g>
        </g>
        <g transform="matrix(8.333333,0,0,8.333333,0,0)">
            <g transform="matrix(1,0,0,1,463.8239,165.1081)">
                <path d="M0,-3.302C0.274,-3.302 0.549,-3.307 0.823,-3.3C0.978,-3.296 1.19,-3.364 1.182,-3.083C1.175,-2.834 0.986,-2.882 0.835,-2.876C0.372,-2.858 -0.092,-2.847 -0.555,-2.827C-0.916,-2.812 -1.059,-2.689 -1.065,-2.403C-1.071,-2.108 -0.905,-1.93 -0.567,-1.911C-0.252,-1.892 0.065,-1.903 0.382,-1.902C0.752,-1.9 1.095,-1.795 1.263,-1.453C1.447,-1.078 1.468,-0.642 1.188,-0.316C1.031,-0.132 0.725,-0.006 0.476,0.014C-0.121,0.062 -0.725,0.03 -1.327,0.036C-1.518,0.038 -1.581,-0.053 -1.592,-0.234C-1.604,-0.447 -1.476,-0.444 -1.329,-0.444C-0.854,-0.443 -0.379,-0.441 0.095,-0.446C0.492,-0.45 0.717,-0.628 0.719,-0.926C0.72,-1.229 0.475,-1.418 0.077,-1.433C-0.311,-1.448 -0.703,-1.446 -1.086,-1.502C-1.536,-1.568 -1.785,-1.959 -1.752,-2.462C-1.723,-2.911 -1.383,-3.273 -0.949,-3.292C-0.634,-3.307 -0.316,-3.295 0,-3.295L0,-3.302Z" style="fill:rgb(0,0,146);fill-rule:nonzero;"/>
            </g>
        </g>
        <g transform="matrix(8.333333,0,0,8.333333,0,0)">
            <g transform="matrix(1,0,0,1,419.6935,165.1242)">
                <path d="M0,-3.317C0.317,-3.317 0.634,-3.331 0.949,-3.308C1.035,-3.301 1.164,-3.193 1.182,-3.111C1.218,-2.952 1.122,-2.88 0.939,-2.881C0.423,-2.882 -0.093,-2.853 -0.61,-2.845C-0.884,-2.841 -1.053,-2.738 -1.068,-2.443C-1.083,-2.147 -0.944,-1.959 -0.632,-1.934C-0.307,-1.906 0.022,-1.912 0.349,-1.919C1.352,-1.943 1.502,-1.086 1.275,-0.483C1.138,-0.12 0.821,-0.011 0.49,0.004C-0.121,0.033 -0.734,0.014 -1.346,0.017C-1.514,0.018 -1.599,-0.052 -1.595,-0.23C-1.592,-0.415 -1.49,-0.461 -1.329,-0.46C-0.865,-0.457 -0.4,-0.456 0.064,-0.461C0.493,-0.466 0.698,-0.635 0.688,-0.964C0.679,-1.258 0.447,-1.434 0.061,-1.447C-0.296,-1.459 -0.659,-1.441 -1.01,-1.498C-1.545,-1.586 -1.828,-1.966 -1.76,-2.486C-1.704,-2.91 -1.418,-3.35 -0.823,-3.317C-0.549,-3.302 -0.274,-3.314 0,-3.314L0,-3.317Z" style="fill:rgb(0,0,146);fill-rule:nonzero;"/>
            </g>
        </g>
        <g transform="matrix(8.333333,0,0,8.333333,0,0)">
            <g transform="matrix(1,0,0,1,484.4266,165.1509)">
                <path d="M0,-3.344C0.306,-3.344 0.613,-3.359 0.917,-3.334C1.003,-3.327 1.08,-3.204 1.161,-3.134C1.079,-3.062 1.002,-2.934 0.915,-2.928C0.401,-2.892 -0.116,-2.881 -0.632,-2.869C-0.914,-2.862 -1.068,-2.72 -1.09,-2.449C-1.111,-2.189 -0.915,-1.976 -0.616,-1.957C-0.269,-1.935 0.08,-1.943 0.429,-1.944C1.108,-1.945 1.375,-1.443 1.393,-0.996C1.414,-0.453 1.085,-0.063 0.495,-0.025C-0.125,0.015 -0.749,-0.005 -1.372,-0.022C-1.446,-0.024 -1.555,-0.16 -1.579,-0.253C-1.624,-0.427 -1.511,-0.49 -1.34,-0.488C-0.865,-0.483 -0.39,-0.483 0.084,-0.488C0.495,-0.493 0.692,-0.655 0.689,-0.972C0.686,-1.28 0.469,-1.458 0.089,-1.475C-0.31,-1.493 -0.715,-1.481 -1.106,-1.55C-1.577,-1.632 -1.785,-2.014 -1.729,-2.565C-1.684,-3.006 -1.386,-3.312 -0.95,-3.334C-0.634,-3.351 -0.317,-3.338 0,-3.338L0,-3.344Z" style="fill:rgb(0,0,146);fill-rule:nonzero;"/>
            </g>
        </g>
        <g transform="matrix(8.333333,0,0,8.333333,0,0)">
            <g transform="matrix(1,0,0,1,470.8856,163.0471)">
                <path d="M0,0.801C0.372,0.801 0.643,0.795 0.914,0.803C1.143,0.81 1.163,0.702 1.091,0.525C0.985,0.262 0.886,-0.004 0.773,-0.264C0.735,-0.352 0.664,-0.426 0.546,-0.597C0.348,-0.09 0.186,0.326 0,0.801M2.282,2.054C1.738,2.173 1.618,2.125 1.447,1.628C1.36,1.374 1.235,1.262 0.966,1.307C0.843,1.328 0.711,1.327 0.587,1.309C0.101,1.236 -0.257,1.334 -0.397,1.886C-0.46,2.134 -0.696,2.16 -1.124,2.033C-1.025,1.757 -0.937,1.479 -0.827,1.209C-0.548,0.528 -0.259,-0.149 0.025,-0.828C0.186,-1.211 0.531,-1.372 0.905,-1.225C0.964,-1.202 1.024,-1.135 1.049,-1.074C1.465,-0.063 1.876,0.951 2.285,1.964C2.296,1.99 2.284,2.025 2.282,2.054" style="fill:rgb(0,0,146);fill-rule:nonzero;"/>
            </g>
        </g>
        <g transform="matrix(8.333333,0,0,8.333333,0,0)">
            <g transform="matrix(1,0,0,1,442.497,163.8636)">
                <path d="M0,-0.777C0,-1.125 0.006,-1.473 -0.002,-1.82C-0.008,-2.031 0.109,-2.061 0.279,-2.059C0.45,-2.057 0.593,-2.054 0.59,-1.816C0.582,-1.237 0.581,-0.657 0.59,-0.077C0.604,0.741 1.26,1.131 1.977,0.732C2.116,0.655 2.258,0.453 2.268,0.3C2.314,-0.361 2.316,-1.025 2.322,-1.688C2.325,-1.913 2.335,-2.07 2.638,-2.066C2.925,-2.062 2.931,-1.913 2.928,-1.703C2.921,-1.176 2.926,-0.649 2.926,-0.122C2.924,0.846 2.488,1.28 1.512,1.282C1.333,1.282 1.151,1.293 0.975,1.265C0.347,1.166 0.004,0.752 0,0.108C-0.001,-0.187 0,-0.482 0,-0.777" style="fill:rgb(0,0,146);fill-rule:nonzero;"/>
            </g>
        </g>
        <g transform="matrix(8.333333,0,0,8.333333,0,0)">
            <g transform="matrix(1,0,0,1,416.4079,163.6702)">
                <path d="M0,-0.426L0.695,-0.426C0.845,-0.426 0.969,-0.403 0.969,-0.207C0.969,-0.016 0.855,0.017 0.7,0.016C0.257,0.015 -0.185,0.012 -0.628,0.018C-0.993,0.023 -1.082,0.163 -0.94,0.497C-0.808,0.808 -0.569,0.977 -0.232,0.988C0.084,0.999 0.4,0.997 0.716,0.994C0.886,0.992 0.999,1.062 0.957,1.232C0.934,1.324 0.82,1.459 0.745,1.461C0.325,1.47 -0.096,1.457 -0.515,1.427C-1.22,1.376 -1.546,0.898 -1.674,0.281C-1.796,-0.312 -1.725,-0.893 -1.338,-1.399C-1.113,-1.693 -0.83,-1.864 -0.451,-1.861C-0.082,-1.859 0.287,-1.865 0.655,-1.863C0.798,-1.862 0.967,-1.896 0.968,-1.662C0.97,-1.415 0.795,-1.445 0.638,-1.437C0.312,-1.421 -0.014,-1.408 -0.339,-1.384C-0.683,-1.358 -0.976,-1.054 -0.998,-0.728C-1.01,-0.547 -0.947,-0.443 -0.758,-0.435C-0.632,-0.43 -0.506,-0.428 -0.379,-0.427C-0.253,-0.425 -0.126,-0.426 0,-0.426" style="fill:rgb(0,0,146);fill-rule:nonzero;"/>
            </g>
        </g>
        <g transform="matrix(8.333333,0,0,8.333333,0,0)">
            <g transform="matrix(1,0,0,1,456.765,163.2279)">
                <path d="M0,0.46C-0.232,0.46 -0.464,0.462 -0.696,0.459C-0.911,0.457 -1.001,0.537 -0.961,0.769C-0.891,1.169 -0.611,1.408 -0.125,1.431C0.149,1.445 0.423,1.44 0.698,1.435C0.859,1.433 0.959,1.472 0.957,1.662C0.956,1.835 0.89,1.922 0.716,1.913C0.243,1.889 -0.231,1.884 -0.7,1.831C-1.146,1.78 -1.44,1.455 -1.551,1.068C-1.762,0.335 -1.84,-0.427 -1.234,-1.036C-1.05,-1.222 -0.762,-1.359 -0.502,-1.4C-0.111,-1.462 0.297,-1.431 0.697,-1.412C0.785,-1.408 0.92,-1.305 0.942,-1.224C0.99,-1.043 0.85,-1 0.693,-0.995C0.367,-0.984 0.036,-0.992 -0.283,-0.936C-0.476,-0.902 -0.698,-0.802 -0.818,-0.657C-0.929,-0.523 -0.948,-0.289 -0.944,-0.1C-0.944,-0.059 -0.676,0.004 -0.529,0.01C-0.129,0.025 0.272,0.015 0.673,0.016C0.818,0.016 0.949,0.029 0.955,0.227C0.962,0.445 0.824,0.46 0.664,0.459C0.443,0.457 0.221,0.458 0,0.458L0,0.46Z" style="fill:rgb(0,0,146);fill-rule:nonzero;"/>
            </g>
        </g>
        <g transform="matrix(8.333333,0,0,8.333333,0,0)">
            <g transform="matrix(1,0,0,1,427.6508,163.8235)">
                <path d="M0,-0.683C0,-0.409 0.004,-0.134 -0.001,0.14C-0.014,0.818 -0.248,1.152 -0.904,1.277C-1.258,1.345 -1.645,1.341 -2.001,1.276C-2.572,1.173 -2.867,0.787 -2.883,0.201C-2.9,-0.453 -2.88,-1.107 -2.89,-1.761C-2.894,-1.986 -2.781,-2.019 -2.596,-2.02C-2.398,-2.021 -2.271,-1.984 -2.274,-1.746C-2.282,-1.177 -2.284,-0.607 -2.274,-0.038C-2.26,0.738 -1.81,1.062 -1.065,0.846C-0.698,0.74 -0.561,0.559 -0.553,0.117C-0.543,-0.473 -0.55,-1.064 -0.548,-1.655C-0.547,-1.831 -0.589,-2.017 -0.298,-2.023C-0.018,-2.028 0.008,-1.879 0.004,-1.664C-0.004,-1.337 0.002,-1.01 0.002,-0.683L0,-0.683Z" style="fill:rgb(0,0,146);fill-rule:nonzero;"/>
            </g>
        </g>
        <g transform="matrix(8.333333,0,0,8.333333,0,0)">
            <g transform="matrix(1,0,0,1,451.1884,165.1043)">
                <path d="M0,-3.257C0.652,-3.358 0.649,-3.352 0.842,-2.831C1.061,-2.239 1.294,-1.653 1.525,-1.065C1.57,-0.952 1.636,-0.848 1.785,-0.724C1.855,-0.876 1.931,-1.026 1.993,-1.181C2.219,-1.748 2.426,-2.323 2.667,-2.884C2.866,-3.347 2.882,-3.339 3.463,-3.265C3.325,-2.918 3.198,-2.58 3.055,-2.249C2.78,-1.611 2.487,-0.982 2.22,-0.341C2.096,-0.045 1.906,0.101 1.588,0.028C1.499,0.008 1.379,-0.053 1.347,-0.128C0.895,-1.157 0.456,-2.191 0,-3.257" style="fill:rgb(0,0,146);fill-rule:nonzero;"/>
            </g>
        </g>
        <g transform="matrix(8.333333,0,0,8.333333,0,0)">
            <g transform="matrix(1,0,0,1,422.8497,165.1426)">
                <path d="M0,-3.336C0.38,-3.336 0.76,-3.337 1.139,-3.336C1.279,-3.335 1.422,-3.348 1.425,-3.138C1.428,-2.918 1.284,-2.911 1.127,-2.911C1.117,-2.911 1.106,-2.911 1.096,-2.91C0.279,-2.887 0.28,-2.887 0.279,-2.081C0.279,-1.512 0.275,-0.942 0.281,-0.373C0.283,-0.154 0.283,0.012 -0.024,0.006C-0.336,-0 -0.322,-0.184 -0.322,-0.393C-0.32,-1.047 -0.32,-1.701 -0.321,-2.355C-0.322,-2.902 -0.331,-2.909 -0.863,-2.91C-0.99,-2.91 -1.125,-2.885 -1.24,-2.922C-1.324,-2.949 -1.381,-3.059 -1.45,-3.132C-1.378,-3.2 -1.309,-3.322 -1.234,-3.326C-0.823,-3.345 -0.411,-3.335 0,-3.335L0,-3.336Z" style="fill:rgb(0,0,146);fill-rule:nonzero;"/>
            </g>
        </g>
        <g transform="matrix(8.333333,0,0,8.333333,0,0)">
            <g transform="matrix(1,0,0,1,468.1501,163.2768)">
                <path d="M0,0.408C0,0.029 -0.012,-0.351 0.005,-0.729C0.015,-0.938 -0.072,-1.022 -0.261,-1.031C-0.46,-1.04 -0.665,-1.02 -0.858,-1.057C-0.945,-1.074 -1.009,-1.202 -1.084,-1.28C-1.008,-1.343 -0.933,-1.46 -0.856,-1.461C-0.077,-1.475 0.703,-1.476 1.482,-1.461C1.568,-1.46 1.704,-1.349 1.724,-1.267C1.766,-1.086 1.621,-1.044 1.467,-1.044C1.277,-1.044 1.088,-1.04 0.898,-1.041C0.676,-1.043 0.581,-0.947 0.584,-0.713C0.595,0.035 0.579,0.783 0.594,1.53C0.6,1.802 0.491,1.866 0.243,1.875C-0.036,1.884 0,1.714 0,1.546L0,0.408" style="fill:rgb(0,0,146);fill-rule:nonzero;"/>
            </g>
        </g>
        <g transform="matrix(8.333333,0,0,8.333333,0,0)">
            <g transform="matrix(1,0,0,1,466.5157,163.4768)">
                <path d="M0,-0.006C0,0.458 -0.011,0.922 0.004,1.385C0.013,1.653 -0.139,1.665 -0.338,1.667C-0.538,1.669 -0.643,1.632 -0.639,1.388C-0.628,0.461 -0.633,-0.467 -0.648,-1.394C-0.652,-1.665 -0.506,-1.672 -0.307,-1.673C-0.109,-1.675 0.011,-1.64 0.003,-1.397C-0.012,-0.934 -0.001,-0.47 -0.001,-0.006L0,-0.006Z" style="fill:rgb(0,0,146);fill-rule:nonzero;"/>
            </g>
        </g>
        <g transform="matrix(8.333333,0,0,8.333333,0,0)">
            <g transform="matrix(1,0,0,1,478.1719,163.4537)">
                <path d="M0,0.036C0,0.49 -0.008,0.943 0.003,1.396C0.009,1.619 -0.08,1.694 -0.295,1.691C-0.499,1.688 -0.611,1.634 -0.61,1.405C-0.605,0.477 -0.605,-0.451 -0.612,-1.379C-0.614,-1.62 -0.484,-1.646 -0.289,-1.652C-0.069,-1.658 0.009,-1.576 0.004,-1.356C-0.008,-0.892 0,-0.428 0,0.036" style="fill:rgb(0,0,146);fill-rule:nonzero;"/>
            </g>
        </g>
        <g transform="matrix(8.333333,0,0,8.333333,0,0)">
            <g transform="matrix(1,0,0,1,432.8835,163.4782)">
                <path d="M0,-0.01C0,0.453 -0.008,0.916 0.003,1.378C0.009,1.603 -0.086,1.669 -0.298,1.669C-0.517,1.669 -0.592,1.585 -0.591,1.369C-0.583,0.444 -0.582,-0.482 -0.591,-1.407C-0.593,-1.653 -0.464,-1.672 -0.273,-1.676C-0.069,-1.679 0.008,-1.604 0.003,-1.398C-0.007,-0.936 0,-0.473 0,-0.01" style="fill:rgb(0,0,146);fill-rule:nonzero;"/>
            </g>
        </g>
        <g transform="matrix(8.333333,0,0,8.333333,0,0)">
            <g transform="matrix(1,0,0,1,450.6174,163.4658)">
                <path d="M0,0.01C0,0.473 -0.007,0.937 0.003,1.4C0.007,1.608 -0.077,1.68 -0.277,1.679C-0.471,1.678 -0.601,1.645 -0.599,1.406C-0.593,0.469 -0.593,-0.468 -0.6,-1.406C-0.602,-1.66 -0.449,-1.655 -0.268,-1.662C-0.057,-1.67 0.007,-1.581 0.003,-1.38C-0.007,-0.917 0,-0.453 0,0.01" style="fill:rgb(0,0,146);fill-rule:nonzero;"/>
            </g>
        </g>
    </g>
</svg>
